<svg width="29" height="36" viewBox="0 0 29 36" fill="none" xmlns="http://www.w3.org/2000/svg">
<path d="M21.35 18C23.3833 18.4333 25.0167 19.45 26.25 21.05C27.4833 22.6167 28.1 24.4167 28.1 26.45C28.1 29.3833 27.0667 31.7167 25 33.45C22.9667 35.15 20.1167 36 16.45 36H0.1V0.899999H15.9C19.4667 0.899999 22.25 1.71666 24.25 3.35C26.2833 4.98333 27.3 7.2 27.3 10C27.3 12.0667 26.75 13.7833 25.65 15.15C24.5833 16.5167 23.15 17.4667 21.35 18ZM8.65 15.1H14.25C15.65 15.1 16.7167 14.8 17.45 14.2C18.2167 13.5667 18.6 12.65 18.6 11.45C18.6 10.25 18.2167 9.33333 17.45 8.7C16.7167 8.06667 15.65 7.75 14.25 7.75H8.65V15.1ZM14.95 29.1C16.3833 29.1 17.4833 28.7833 18.25 28.15C19.05 27.4833 19.45 26.5333 19.45 25.3C19.45 24.0667 19.0333 23.1 18.2 22.4C17.4 21.7 16.2833 21.35 14.85 21.35H8.65V29.1H14.95Z" fill="black"/>
</svg>
